<svg xmlns="http://www.w3.org/2000/svg" viewBox="0 0 152.6 422.6"><g data-name="Layer 2"><path fill="#fff" d="M.65.65h151.3v421.3H.65z"/><path d="M151.3 1.3v420H1.3V1.3h150m1.3-1.3H0v422.6h152.6V0z"/><path fill="#fff" d="M7.904 9.399h136.267v404.2H7.904z"/><path d="M143.671 9.9v403.2H8.4V9.9h135.271m1-1H7.4v405.2h137.271V8.9z"/><path fill="#fff" d="M22.737 23.799h107.2v374.733h-107.2z"/><path d="M129.438 24.3v373.732H23.237V24.3h106.2m1-1h-108.2v375.732h108.2V23.3z"/><path fill="#fff" stroke="#000" stroke-miterlimit="10" d="M151.3 1.3l-7.629 8.598-14.234 14.4M23.237 24.298L8.404 9.898 1.3 1.3M1.3 421.3l7.104-8.202 14.833-15.066M129.437 398.032l14.234 15.066 7.629 8.202M23.237 252.432h106.2v17.2h-106.2z"/><path fill="none" stroke="#000" stroke-miterlimit="10" stroke-width=".3" d="M129.437 24.298l-106.2 186.867M56.465 269.632l72.972 128.4M23.237 211.165l23.629 41.576"/><path fill="#fff" stroke="#000" stroke-miterlimit="10" stroke-width=".8" d="M15.271 209.298h14.8v3.6h-14.8v-3.6z"/><path fill="none" stroke="#000" stroke-miterlimit="10" stroke-width=".8" d="M19.004 209.298l.067-8.066h-7.6v19.866h7.6v-8.2"/></g></svg>